# xmcd
#
# Track frame offsets:
#	150
#	10756
#	23894
#	38281
#	50472
#	63528
#	94278
#	107163
#	135498
#	149448
#	159734
#	173936
#	187741
#	198916
#	210440
#	221254
#	240889
#	253158
#	267151
#	296313
#
# Disc length: 4106 seconds
#
# Revision: 1
# Processed by: cddbd v1.4PL0 Copyright (c) Steve Scherf et al.
# Submitted via: EasyCDDAExtractor 6.2.0.3
#
DISCID=10100814
DTITLE=Ray Charles - The Great Ray Charles Live
DYEAR=2002
DGENRE=Blues
TTITLE0=Ain't That Fine
TTITLE1=Baby Won't You Please Come Home
TTITLE2=Blues Is My Middle Name
TTITLE3=Can't You See Darling
TTITLE4=Don't Put All Your Dreams In One Basket
TTITLE5=Georgia On My Mind
TTITLE6=Heartbreaker
TTITLE7=I Got A Woman
TTITLE8=I'm Going Down To The River
TTITLE9=I'm Movin' On
TTITLE10=Kiss Me Baby
TTITLE11=Late In The Evening Blues
TTITLE12=A Sentimental Blues
TTITLE13=She's On The Ball
TTITLE14=Sitting On The Topof The World
TTITLE15=Talkin' ' Bout You
TTITLE16=Tell Me How Do You Feel
TTITLE17=This Love Of Mine
TTITLE18=What' d I Say
TTITLE19=You Be My Baby
EXTD=
EXTT0=
EXTT1=
EXTT2=
EXTT3=
EXTT4=
EXTT5=
EXTT6=
EXTT7=
EXTT8=
EXTT9=
EXTT10=
EXTT11=
EXTT12=
EXTT13=
EXTT14=
EXTT15=
EXTT16=
EXTT17=
EXTT18=
EXTT19=
PLAYORDER=
